<mxfile host="65bd71144e">
    <diagram id="OQM4cVMt3VUpGmZedfVg" name="Page-1">
        <mxGraphModel dx="4690" dy="1915" grid="0" gridSize="10" guides="1" tooltips="1" connect="1" arrows="1" fold="1" page="0" pageScale="1" pageWidth="850" pageHeight="1100" background="none" math="0" shadow="0">
            <root>
                <mxCell id="0"/>
                <mxCell id="1" parent="0"/>
                <mxCell id="222" value="EOL&lt;br&gt;White symbols" style="curved=1;endArrow=classic;html=1;fontSize=41;strokeWidth=2;entryX=0.956;entryY=0.689;entryDx=0;entryDy=0;entryPerimeter=0;exitX=0.058;exitY=0.725;exitDx=0;exitDy=0;exitPerimeter=0;" parent="1" source="221" target="180" edge="1">
                    <mxGeometry x="-0.2461" y="57" width="50" height="50" relative="1" as="geometry">
                        <mxPoint x="-1529" y="547" as="sourcePoint"/>
                        <mxPoint x="-1625.9957673692377" y="576.0193748343438" as="targetPoint"/>
                        <Array as="points">
                            <mxPoint x="-1567" y="578"/>
                        </Array>
                        <mxPoint as="offset"/>
                    </mxGeometry>
                </mxCell>
                <mxCell id="4" value="&lt;font style=&quot;font-size: 41px&quot;&gt;S&lt;/font&gt;" style="ellipse;whiteSpace=wrap;html=1;aspect=fixed;strokeWidth=2;" parent="1" vertex="1">
                    <mxGeometry x="145" y="453" width="232" height="232" as="geometry"/>
                </mxCell>
                <mxCell id="5" value="&lt;span style=&quot;font-size: 30px&quot;&gt;EOL, White symbols&lt;/span&gt;" style="curved=1;endArrow=classic;html=1;entryX=0.919;entryY=0.224;entryDx=0;entryDy=0;strokeWidth=2;entryPerimeter=0;" parent="1" source="4" target="4" edge="1">
                    <mxGeometry x="-0.2158" y="48" width="50" height="50" relative="1" as="geometry">
                        <mxPoint x="271" y="604" as="sourcePoint"/>
                        <mxPoint x="321" y="554" as="targetPoint"/>
                        <Array as="points">
                            <mxPoint x="301" y="391"/>
                            <mxPoint x="424" y="465"/>
                        </Array>
                        <mxPoint as="offset"/>
                    </mxGeometry>
                </mxCell>
                <mxCell id="6" value="&quot;" style="curved=1;endArrow=classic;html=1;fontSize=41;exitX=1;exitY=1;exitDx=0;exitDy=0;strokeWidth=2;entryX=0;entryY=0.5;entryDx=0;entryDy=0;" parent="1" source="4" target="7" edge="1">
                    <mxGeometry x="-0.0737" y="35" width="50" height="50" relative="1" as="geometry">
                        <mxPoint x="346" y="593" as="sourcePoint"/>
                        <mxPoint x="845" y="926" as="targetPoint"/>
                        <Array as="points">
                            <mxPoint x="542" y="926"/>
                        </Array>
                        <mxPoint x="1" as="offset"/>
                    </mxGeometry>
                </mxCell>
                <mxCell id="7" value="&lt;span style=&quot;font-size: 41px&quot;&gt;str&lt;/span&gt;" style="ellipse;whiteSpace=wrap;html=1;aspect=fixed;strokeWidth=2;" parent="1" vertex="1">
                    <mxGeometry x="852" y="856" width="155" height="155" as="geometry"/>
                </mxCell>
                <mxCell id="11" value="&lt;span style=&quot;color: rgb(32 , 33 , 36) ; font-family: &amp;#34;arial&amp;#34; , sans-serif ; font-size: 29px ; text-align: left&quot;&gt;Î£ - &quot;,$,\&lt;/span&gt;" style="curved=1;endArrow=classic;html=1;strokeWidth=2;entryX=1;entryY=0;entryDx=0;entryDy=0;exitX=0;exitY=0;exitDx=0;exitDy=0;" parent="1" source="7" target="7" edge="1">
                    <mxGeometry width="50" height="50" relative="1" as="geometry">
                        <mxPoint x="439" y="503" as="sourcePoint"/>
                        <mxPoint x="540" y="510" as="targetPoint"/>
                        <Array as="points">
                            <mxPoint x="860" y="776"/>
                            <mxPoint x="1003" y="776"/>
                        </Array>
                    </mxGeometry>
                </mxCell>
                <mxCell id="12" value="&lt;font style=&quot;font-size: 30px&quot;&gt;\&lt;/font&gt;" style="curved=1;endArrow=classic;html=1;exitX=1;exitY=0.5;exitDx=0;exitDy=0;strokeWidth=2;entryX=0;entryY=0;entryDx=0;entryDy=0;" parent="1" source="7" target="13" edge="1">
                    <mxGeometry x="-0.0498" y="-2" width="50" height="50" relative="1" as="geometry">
                        <mxPoint x="1171.9756133823614" y="1084.9756133823614" as="sourcePoint"/>
                        <mxPoint x="1394" y="836" as="targetPoint"/>
                        <Array as="points">
                            <mxPoint x="1050" y="849"/>
                            <mxPoint x="1163" y="822"/>
                        </Array>
                        <mxPoint y="1" as="offset"/>
                    </mxGeometry>
                </mxCell>
                <mxCell id="13" value="&lt;span style=&quot;font-size: 41px&quot;&gt;str1&lt;/span&gt;" style="ellipse;whiteSpace=wrap;html=1;aspect=fixed;strokeWidth=2;" parent="1" vertex="1">
                    <mxGeometry x="1213" y="835" width="155" height="155" as="geometry"/>
                </mxCell>
                <mxCell id="14" value="&lt;font style=&quot;font-size: 30px&quot;&gt;n,\,$,r,t,&quot;,v,e,f&lt;/font&gt;" style="curved=1;endArrow=classic;html=1;exitX=0;exitY=1;exitDx=0;exitDy=0;strokeWidth=2;entryX=0.976;entryY=0.725;entryDx=0;entryDy=0;entryPerimeter=0;" parent="1" source="13" target="7" edge="1">
                    <mxGeometry x="-0.0966" y="8" width="50" height="50" relative="1" as="geometry">
                        <mxPoint x="1017.0000000000055" y="943.5" as="sourcePoint"/>
                        <mxPoint x="1125.0000000000055" y="1154.5" as="targetPoint"/>
                        <Array as="points">
                            <mxPoint x="1232" y="1038"/>
                            <mxPoint x="1083" y="1067"/>
                        </Array>
                        <mxPoint as="offset"/>
                    </mxGeometry>
                </mxCell>
                <mxCell id="17" value="&lt;span style=&quot;font-size: 30px&quot;&gt;0...7&lt;/span&gt;" style="curved=1;endArrow=classic;html=1;exitX=1;exitY=0;exitDx=0;exitDy=0;strokeWidth=2;entryX=0;entryY=1;entryDx=0;entryDy=0;" parent="1" source="13" target="18" edge="1">
                    <mxGeometry x="-0.0498" y="-2" width="50" height="50" relative="1" as="geometry">
                        <mxPoint x="1484.0000000000055" y="866.5" as="sourcePoint"/>
                        <mxPoint x="1552" y="766" as="targetPoint"/>
                        <Array as="points">
                            <mxPoint x="1432" y="893"/>
                            <mxPoint x="1497" y="850"/>
                        </Array>
                        <mxPoint y="1" as="offset"/>
                    </mxGeometry>
                </mxCell>
                <mxCell id="18" value="&lt;span style=&quot;font-size: 41px&quot;&gt;stro1&lt;/span&gt;" style="ellipse;whiteSpace=wrap;html=1;aspect=fixed;strokeWidth=2;" parent="1" vertex="1">
                    <mxGeometry x="1492" y="664" width="155" height="155" as="geometry"/>
                </mxCell>
                <mxCell id="20" value="&lt;span style=&quot;font-size: 41px&quot;&gt;stro2&lt;/span&gt;" style="ellipse;whiteSpace=wrap;html=1;aspect=fixed;strokeWidth=2;" parent="1" vertex="1">
                    <mxGeometry x="1098" y="625" width="155" height="155" as="geometry"/>
                </mxCell>
                <mxCell id="21" value="&lt;span style=&quot;font-size: 30px&quot;&gt;0...7&lt;/span&gt;" style="curved=1;endArrow=classic;html=1;exitX=0.5;exitY=0;exitDx=0;exitDy=0;strokeWidth=2;entryX=1;entryY=0.5;entryDx=0;entryDy=0;" parent="1" source="18" target="20" edge="1">
                    <mxGeometry x="-0.0498" y="-2" width="50" height="50" relative="1" as="geometry">
                        <mxPoint x="1355.3007755419612" y="867.6992244580388" as="sourcePoint"/>
                        <mxPoint x="1524.699224458047" y="806.3007755419533" as="targetPoint"/>
                        <Array as="points">
                            <mxPoint x="1552" y="616"/>
                            <mxPoint x="1342" y="626"/>
                        </Array>
                        <mxPoint y="1" as="offset"/>
                    </mxGeometry>
                </mxCell>
                <mxCell id="23" value="&lt;span style=&quot;font-size: 30px&quot;&gt;0...7&lt;/span&gt;" style="curved=1;endArrow=classic;html=1;exitX=0;exitY=0.5;exitDx=0;exitDy=0;strokeWidth=2;" parent="1" source="20" target="7" edge="1">
                    <mxGeometry x="-0.0498" y="-2" width="50" height="50" relative="1" as="geometry">
                        <mxPoint x="1579.5" y="673.9999999999998" as="sourcePoint"/>
                        <mxPoint x="852" y="560" as="targetPoint"/>
                        <Array as="points">
                            <mxPoint x="646" y="778"/>
                        </Array>
                        <mxPoint y="1" as="offset"/>
                    </mxGeometry>
                </mxCell>
                <mxCell id="24" value="&lt;span style=&quot;font-size: 30px&quot;&gt;x&lt;/span&gt;" style="curved=1;endArrow=classic;html=1;exitX=1;exitY=0.5;exitDx=0;exitDy=0;strokeWidth=2;entryX=0.5;entryY=0;entryDx=0;entryDy=0;" parent="1" source="13" target="25" edge="1">
                    <mxGeometry x="-0.0498" y="-2" width="50" height="50" relative="1" as="geometry">
                        <mxPoint x="1355.3007755419612" y="867.6992244580388" as="sourcePoint"/>
                        <mxPoint x="1496" y="1056" as="targetPoint"/>
                        <Array as="points">
                            <mxPoint x="1442" y="912"/>
                            <mxPoint x="1554" y="966"/>
                        </Array>
                        <mxPoint y="1" as="offset"/>
                    </mxGeometry>
                </mxCell>
                <mxCell id="25" value="&lt;span style=&quot;font-size: 41px&quot;&gt;strh1&lt;/span&gt;" style="ellipse;whiteSpace=wrap;html=1;aspect=fixed;strokeWidth=2;" parent="1" vertex="1">
                    <mxGeometry x="1499" y="1039" width="155" height="155" as="geometry"/>
                </mxCell>
                <mxCell id="26" value="&lt;span style=&quot;font-size: 30px&quot;&gt;0...9, A...F&lt;/span&gt;" style="curved=1;endArrow=classic;html=1;exitX=0.5;exitY=1;exitDx=0;exitDy=0;strokeWidth=2;entryX=1;entryY=0.5;entryDx=0;entryDy=0;" parent="1" source="25" target="27" edge="1">
                    <mxGeometry x="-0.0498" y="-2" width="50" height="50" relative="1" as="geometry">
                        <mxPoint x="1377.999999999999" y="922.4999999999998" as="sourcePoint"/>
                        <mxPoint x="1358" y="1315" as="targetPoint"/>
                        <Array as="points">
                            <mxPoint x="1565" y="1252"/>
                            <mxPoint x="1472" y="1315"/>
                        </Array>
                        <mxPoint y="1" as="offset"/>
                    </mxGeometry>
                </mxCell>
                <mxCell id="27" value="&lt;span style=&quot;font-size: 41px&quot;&gt;strh2&lt;/span&gt;" style="ellipse;whiteSpace=wrap;html=1;aspect=fixed;strokeWidth=2;" parent="1" vertex="1">
                    <mxGeometry x="1199" y="1236" width="155" height="155" as="geometry"/>
                </mxCell>
                <mxCell id="28" value="&lt;span style=&quot;font-size: 30px&quot;&gt;0...9, A...F&lt;/span&gt;" style="curved=1;endArrow=classic;html=1;exitX=0;exitY=0.5;exitDx=0;exitDy=0;strokeWidth=2;entryX=0.748;entryY=0.916;entryDx=0;entryDy=0;entryPerimeter=0;" parent="1" source="27" target="7" edge="1">
                    <mxGeometry x="-0.0498" y="-2" width="50" height="50" relative="1" as="geometry">
                        <mxPoint x="1586.5" y="1204" as="sourcePoint"/>
                        <mxPoint x="963" y="1383" as="targetPoint"/>
                        <Array as="points">
                            <mxPoint x="1108" y="1306"/>
                        </Array>
                        <mxPoint y="1" as="offset"/>
                    </mxGeometry>
                </mxCell>
                <mxCell id="29" value="&lt;span style=&quot;font-size: 30px&quot;&gt;&quot;&lt;/span&gt;" style="curved=1;endArrow=classic;html=1;strokeWidth=2;exitX=0.5;exitY=1;exitDx=0;exitDy=0;entryX=0.062;entryY=0.243;entryDx=0;entryDy=0;entryPerimeter=0;" parent="1" source="7" target="31" edge="1">
                    <mxGeometry x="0.374" y="38" width="50" height="50" relative="1" as="geometry">
                        <mxPoint x="924.0000000000023" y="1131" as="sourcePoint"/>
                        <mxPoint x="894" y="1273" as="targetPoint"/>
                        <Array as="points">
                            <mxPoint x="720" y="1154"/>
                        </Array>
                        <mxPoint x="1" as="offset"/>
                    </mxGeometry>
                </mxCell>
                <mxCell id="32" value="" style="group" parent="1" vertex="1" connectable="0">
                    <mxGeometry x="888" y="1228" width="191" height="191" as="geometry"/>
                </mxCell>
                <mxCell id="31" value="" style="ellipse;whiteSpace=wrap;html=1;aspect=fixed;strokeWidth=2;" parent="32" vertex="1">
                    <mxGeometry width="191" height="191" as="geometry"/>
                </mxCell>
                <mxCell id="30" value="&lt;span style=&quot;font-size: 41px&quot;&gt;strf&lt;/span&gt;" style="ellipse;whiteSpace=wrap;html=1;aspect=fixed;strokeWidth=2;" parent="32" vertex="1">
                    <mxGeometry x="18" y="18" width="155" height="155" as="geometry"/>
                </mxCell>
                <mxCell id="33" value="a...z" style="curved=1;endArrow=classic;html=1;fontSize=41;exitX=0.975;exitY=0.683;exitDx=0;exitDy=0;strokeWidth=2;entryX=0;entryY=1;entryDx=0;entryDy=0;exitPerimeter=0;" parent="1" source="4" target="36" edge="1">
                    <mxGeometry x="-0.0737" y="35" width="50" height="50" relative="1" as="geometry">
                        <mxPoint x="353.0243866176429" y="661.0243866176427" as="sourcePoint"/>
                        <mxPoint x="1051" y="396" as="targetPoint"/>
                        <Array as="points">
                            <mxPoint x="653" y="646"/>
                            <mxPoint x="968" y="569"/>
                        </Array>
                        <mxPoint x="1" as="offset"/>
                    </mxGeometry>
                </mxCell>
                <mxCell id="37" value="" style="group" parent="1" vertex="1" connectable="0">
                    <mxGeometry x="1205" y="199" width="266" height="263" as="geometry"/>
                </mxCell>
                <mxCell id="36" value="" style="ellipse;whiteSpace=wrap;html=1;aspect=fixed;strokeWidth=2;" parent="37" vertex="1">
                    <mxGeometry width="263" height="263" as="geometry"/>
                </mxCell>
                <mxCell id="34" value="&lt;span style=&quot;font-size: 41px&quot;&gt;key_or_idt&lt;/span&gt;" style="ellipse;whiteSpace=wrap;html=1;aspect=fixed;strokeWidth=2;" parent="37" vertex="1">
                    <mxGeometry x="21.02" y="21.03" width="220.95" height="220.95" as="geometry"/>
                </mxCell>
                <mxCell id="35" value="a...z" style="curved=1;endArrow=classic;html=1;fontSize=41;strokeWidth=2;exitX=0.5;exitY=1;exitDx=0;exitDy=0;entryX=1;entryY=1;entryDx=0;entryDy=0;" parent="37" source="36" target="36" edge="1">
                    <mxGeometry x="0.091" y="22" width="50" height="50" relative="1" as="geometry">
                        <mxPoint x="92.88888888888889" y="306.83333333333337" as="sourcePoint"/>
                        <mxPoint x="271.27777777777777" y="233.7777777777778" as="targetPoint"/>
                        <Array as="points">
                            <mxPoint x="126.66666666666667" y="332.9246031746032"/>
                            <mxPoint x="261.77777777777777" y="296.3968253968254"/>
                        </Array>
                        <mxPoint as="offset"/>
                    </mxGeometry>
                </mxCell>
                <mxCell id="38" value="?" style="curved=1;endArrow=classic;html=1;fontSize=41;exitX=1;exitY=0.5;exitDx=0;exitDy=0;strokeWidth=2;entryX=0.258;entryY=0.968;entryDx=0;entryDy=0;entryPerimeter=0;" parent="1" source="4" target="39" edge="1">
                    <mxGeometry x="-0.0737" y="35" width="50" height="50" relative="1" as="geometry">
                        <mxPoint x="381.2000000000003" y="621.4559999999999" as="sourcePoint"/>
                        <mxPoint x="893" y="442" as="targetPoint"/>
                        <Array as="points">
                            <mxPoint x="577" y="562"/>
                            <mxPoint x="810" y="518"/>
                        </Array>
                        <mxPoint x="1" as="offset"/>
                    </mxGeometry>
                </mxCell>
                <mxCell id="39" value="&lt;span style=&quot;font-size: 41px&quot;&gt;qm&lt;/span&gt;" style="ellipse;whiteSpace=wrap;html=1;aspect=fixed;strokeWidth=2;" parent="1" vertex="1">
                    <mxGeometry x="891" y="311" width="155" height="155" as="geometry"/>
                </mxCell>
                <mxCell id="40" value="a...z" style="curved=1;endArrow=classic;html=1;fontSize=41;strokeWidth=2;exitX=1;exitY=0;exitDx=0;exitDy=0;entryX=0;entryY=1;entryDx=0;entryDy=0;" parent="1" source="39" target="45" edge="1">
                    <mxGeometry x="-0.0737" y="35" width="50" height="50" relative="1" as="geometry">
                        <mxPoint x="507" y="397" as="sourcePoint"/>
                        <mxPoint x="1042" y="162" as="targetPoint"/>
                        <Array as="points">
                            <mxPoint x="1018" y="342"/>
                            <mxPoint x="1050" y="223"/>
                        </Array>
                        <mxPoint x="1" as="offset"/>
                    </mxGeometry>
                </mxCell>
                <mxCell id="41" value="&amp;gt;" style="curved=1;endArrow=classic;html=1;fontSize=41;strokeWidth=2;exitX=0;exitY=0;exitDx=0;exitDy=0;entryX=0;entryY=1;entryDx=0;entryDy=0;" parent="1" source="39" target="219" edge="1">
                    <mxGeometry x="-0.0737" y="35" width="50" height="50" relative="1" as="geometry">
                        <mxPoint x="997.3007755419571" y="359.69922445804264" as="sourcePoint"/>
                        <mxPoint x="906" y="122" as="targetPoint"/>
                        <Array as="points">
                            <mxPoint x="831" y="285"/>
                            <mxPoint x="836" y="131"/>
                        </Array>
                        <mxPoint x="1" as="offset"/>
                    </mxGeometry>
                </mxCell>
                <mxCell id="46" value="" style="group" parent="1" vertex="1" connectable="0">
                    <mxGeometry x="1156" y="2" width="177" height="177" as="geometry"/>
                </mxCell>
                <mxCell id="45" value="" style="ellipse;whiteSpace=wrap;html=1;aspect=fixed;strokeWidth=2;" parent="46" vertex="1">
                    <mxGeometry width="177" height="177" as="geometry"/>
                </mxCell>
                <mxCell id="43" value="&lt;span style=&quot;font-size: 41px&quot;&gt;idt&lt;/span&gt;" style="ellipse;whiteSpace=wrap;html=1;aspect=fixed;strokeWidth=2;" parent="46" vertex="1">
                    <mxGeometry x="11" y="11" width="155" height="155" as="geometry"/>
                </mxCell>
                <mxCell id="47" value="a...z" style="curved=1;endArrow=classic;html=1;fontSize=41;strokeWidth=2;entryX=0.39;entryY=0.008;entryDx=0;entryDy=0;entryPerimeter=0;" parent="46" source="45" target="45" edge="1">
                    <mxGeometry x="-0.0737" y="35" width="50" height="50" relative="1" as="geometry">
                        <mxPoint x="-82.69922445804877" y="377.6992244580483" as="sourcePoint"/>
                        <mxPoint x="225" y="194" as="targetPoint"/>
                        <Array as="points">
                            <mxPoint x="-60" y="71"/>
                            <mxPoint x="-13" y="-42"/>
                        </Array>
                        <mxPoint x="1" as="offset"/>
                    </mxGeometry>
                </mxCell>
                <mxCell id="50" value="" style="group" parent="1" vertex="1" connectable="0">
                    <mxGeometry x="1117" y="-331" width="184.5" height="184.5" as="geometry"/>
                </mxCell>
                <mxCell id="49" value="" style="ellipse;whiteSpace=wrap;html=1;aspect=fixed;strokeWidth=2;" parent="50" vertex="1">
                    <mxGeometry width="184.5" height="184.5" as="geometry"/>
                </mxCell>
                <mxCell id="42" value="&lt;span style=&quot;font-size: 41px&quot;&gt;end&lt;/span&gt;" style="ellipse;whiteSpace=wrap;html=1;aspect=fixed;strokeWidth=2;" parent="50" vertex="1">
                    <mxGeometry x="14.75" y="14.75" width="155" height="155" as="geometry"/>
                </mxCell>
                <mxCell id="51" value="$" style="curved=1;endArrow=classic;html=1;fontSize=41;exitX=0.97;exitY=0.31;exitDx=0;exitDy=0;strokeWidth=2;exitPerimeter=0;entryX=1;entryY=1;entryDx=0;entryDy=0;" parent="1" source="4" target="52" edge="1">
                    <mxGeometry x="-0.0737" y="35" width="50" height="50" relative="1" as="geometry">
                        <mxPoint x="387.00000000000273" y="579" as="sourcePoint"/>
                        <mxPoint x="627" y="270" as="targetPoint"/>
                        <Array as="points">
                            <mxPoint x="562" y="487"/>
                            <mxPoint x="730" y="412"/>
                        </Array>
                        <mxPoint x="1" as="offset"/>
                    </mxGeometry>
                </mxCell>
                <mxCell id="52" value="&lt;span style=&quot;font-size: 41px&quot;&gt;var1&lt;/span&gt;" style="ellipse;whiteSpace=wrap;html=1;aspect=fixed;strokeWidth=2;" parent="1" vertex="1">
                    <mxGeometry x="590" y="115" width="155" height="155" as="geometry"/>
                </mxCell>
                <mxCell id="53" value="a...z,&lt;br&gt;A...Z,&lt;br&gt;_" style="curved=1;endArrow=classic;html=1;fontSize=41;strokeWidth=2;" parent="1" source="52" target="55" edge="1">
                    <mxGeometry x="-0.1583" y="-8" width="50" height="50" relative="1" as="geometry">
                        <mxPoint x="380.03999999999996" y="534.9200000000001" as="sourcePoint"/>
                        <mxPoint x="717" y="-68" as="targetPoint"/>
                        <Array as="points">
                            <mxPoint x="665" y="72"/>
                            <mxPoint x="682" y="-17"/>
                        </Array>
                        <mxPoint y="-1" as="offset"/>
                    </mxGeometry>
                </mxCell>
                <mxCell id="56" value="" style="group" parent="1" vertex="1" connectable="0">
                    <mxGeometry x="675.25" y="-269.75" width="186.5" height="186.5" as="geometry"/>
                </mxCell>
                <mxCell id="55" value="" style="ellipse;whiteSpace=wrap;html=1;aspect=fixed;strokeWidth=2;" parent="56" vertex="1">
                    <mxGeometry width="186.5" height="186.5" as="geometry"/>
                </mxCell>
                <mxCell id="54" value="&lt;span style=&quot;font-size: 41px&quot;&gt;varf&lt;/span&gt;" style="ellipse;whiteSpace=wrap;html=1;aspect=fixed;strokeWidth=2;" parent="56" vertex="1">
                    <mxGeometry x="15.75" y="15.75" width="155" height="155" as="geometry"/>
                </mxCell>
                <mxCell id="57" value="a...z,&lt;br&gt;A...Z,&lt;br&gt;_,&lt;br&gt;0...9" style="curved=1;endArrow=classic;html=1;fontSize=41;strokeWidth=2;exitX=0.973;exitY=0.669;exitDx=0;exitDy=0;exitPerimeter=0;entryX=0.669;entryY=-0.001;entryDx=0;entryDy=0;entryPerimeter=0;" parent="56" source="55" target="55" edge="1">
                    <mxGeometry x="-0.0168" y="12" width="50" height="50" relative="1" as="geometry">
                        <mxPoint x="279.97371491446324" y="87.0974738413484" as="sourcePoint"/>
                        <mxPoint x="337.9433719482315" y="-122.25059480552972" as="targetPoint"/>
                        <Array as="points">
                            <mxPoint x="278.54999999999995" y="44.089999999999975"/>
                            <mxPoint x="254.75" y="-45.25"/>
                        </Array>
                        <mxPoint as="offset"/>
                    </mxGeometry>
                </mxCell>
                <mxCell id="58" value="0...9" style="curved=1;endArrow=classic;html=1;fontSize=41;strokeWidth=2;exitX=0.744;exitY=0.955;exitDx=0;exitDy=0;exitPerimeter=0;entryX=0.332;entryY=-0.019;entryDx=0;entryDy=0;entryPerimeter=0;" parent="1" source="4" target="62" edge="1">
                    <mxGeometry x="0.2321" y="-26" width="50" height="50" relative="1" as="geometry">
                        <mxPoint x="193.0043866176297" y="776.0043866176302" as="sourcePoint"/>
                        <mxPoint x="635" y="1240" as="targetPoint"/>
                        <Array as="points">
                            <mxPoint x="528" y="875"/>
                        </Array>
                        <mxPoint x="1" y="1" as="offset"/>
                    </mxGeometry>
                </mxCell>
                <mxCell id="61" value="" style="group" parent="1" vertex="1" connectable="0">
                    <mxGeometry x="583" y="1156" width="186.5" height="186.5" as="geometry"/>
                </mxCell>
                <mxCell id="62" value="" style="ellipse;whiteSpace=wrap;html=1;aspect=fixed;strokeWidth=2;" parent="61" vertex="1">
                    <mxGeometry width="186.5" height="186.5" as="geometry"/>
                </mxCell>
                <mxCell id="63" value="&lt;span style=&quot;font-size: 41px&quot;&gt;intf&lt;/span&gt;" style="ellipse;whiteSpace=wrap;html=1;aspect=fixed;strokeWidth=2;" parent="61" vertex="1">
                    <mxGeometry x="15.75" y="15.75" width="155" height="155" as="geometry"/>
                </mxCell>
                <mxCell id="64" value="0...9" style="curved=1;endArrow=classic;html=1;fontSize=41;strokeWidth=2;exitX=0.024;exitY=0.745;exitDx=0;exitDy=0;exitPerimeter=0;entryX=0.064;entryY=0.236;entryDx=0;entryDy=0;entryPerimeter=0;" parent="61" source="62" target="62" edge="1">
                    <mxGeometry x="-0.0168" y="12" width="50" height="50" relative="1" as="geometry">
                        <mxPoint x="279.97371491446324" y="87.0974738413484" as="sourcePoint"/>
                        <mxPoint x="337.9433719482315" y="-122.25059480552972" as="targetPoint"/>
                        <Array as="points">
                            <mxPoint x="-113" y="127"/>
                            <mxPoint x="-68" y="44"/>
                        </Array>
                        <mxPoint as="offset"/>
                    </mxGeometry>
                </mxCell>
                <mxCell id="66" value="e,E" style="curved=1;endArrow=classic;html=1;fontSize=41;strokeWidth=2;exitX=0;exitY=1;exitDx=0;exitDy=0;entryX=0;entryY=0;entryDx=0;entryDy=0;" parent="1" source="62" target="67" edge="1">
                    <mxGeometry x="-0.0168" y="12" width="50" height="50" relative="1" as="geometry">
                        <mxPoint x="433" y="1407" as="sourcePoint"/>
                        <mxPoint x="500" y="1609" as="targetPoint"/>
                        <Array as="points">
                            <mxPoint x="442" y="1423"/>
                            <mxPoint x="442" y="1554"/>
                        </Array>
                        <mxPoint as="offset"/>
                    </mxGeometry>
                </mxCell>
                <mxCell id="67" value="&lt;span style=&quot;font-size: 41px&quot;&gt;exp&lt;/span&gt;" style="ellipse;whiteSpace=wrap;html=1;aspect=fixed;strokeWidth=2;" parent="1" vertex="1">
                    <mxGeometry x="428" y="1543.5" width="155" height="155" as="geometry"/>
                </mxCell>
                <mxCell id="68" value="." style="curved=1;endArrow=classic;html=1;fontSize=41;strokeWidth=2;exitX=0.5;exitY=1;exitDx=0;exitDy=0;entryX=0.5;entryY=0;entryDx=0;entryDy=0;" parent="1" source="62" target="71" edge="1">
                    <mxGeometry x="-0.0114" y="6" width="50" height="50" relative="1" as="geometry">
                        <mxPoint x="620.3122926543515" y="1325.187707345649" as="sourcePoint"/>
                        <mxPoint x="877.5" y="1536" as="targetPoint"/>
                        <Array as="points">
                            <mxPoint x="882" y="1429"/>
                        </Array>
                        <mxPoint x="-1" as="offset"/>
                    </mxGeometry>
                </mxCell>
                <mxCell id="70" value="" style="group" parent="1" vertex="1" connectable="0">
                    <mxGeometry x="793" y="1512" width="186.5" height="186.5" as="geometry"/>
                </mxCell>
                <mxCell id="71" value="" style="ellipse;whiteSpace=wrap;html=1;aspect=fixed;strokeWidth=2;" parent="70" vertex="1">
                    <mxGeometry width="186.5" height="186.5" as="geometry"/>
                </mxCell>
                <mxCell id="72" value="&lt;span style=&quot;font-size: 41px&quot;&gt;float&lt;/span&gt;" style="ellipse;whiteSpace=wrap;html=1;aspect=fixed;strokeWidth=2;" parent="70" vertex="1">
                    <mxGeometry x="15.75" y="15.75" width="155" height="155" as="geometry"/>
                </mxCell>
                <mxCell id="73" value="0...9" style="curved=1;endArrow=classic;html=1;fontSize=41;strokeWidth=2;exitX=0.024;exitY=0.745;exitDx=0;exitDy=0;exitPerimeter=0;entryX=0.064;entryY=0.236;entryDx=0;entryDy=0;entryPerimeter=0;" parent="70" source="71" target="71" edge="1">
                    <mxGeometry x="-0.0168" y="12" width="50" height="50" relative="1" as="geometry">
                        <mxPoint x="279.97371491446324" y="87.0974738413484" as="sourcePoint"/>
                        <mxPoint x="337.9433719482315" y="-122.25059480552972" as="targetPoint"/>
                        <Array as="points">
                            <mxPoint x="-113" y="127"/>
                            <mxPoint x="-68" y="44"/>
                        </Array>
                        <mxPoint as="offset"/>
                    </mxGeometry>
                </mxCell>
                <mxCell id="74" value="0...9&lt;br&gt;+-" style="curved=1;endArrow=classic;html=1;fontSize=41;strokeWidth=2;exitX=0.761;exitY=0.971;exitDx=0;exitDy=0;exitPerimeter=0;entryX=1;entryY=0.5;entryDx=0;entryDy=0;" parent="1" source="67" target="77" edge="1">
                    <mxGeometry x="-0.0168" y="12" width="50" height="50" relative="1" as="geometry">
                        <mxPoint x="807.4760000000001" y="1660.9425" as="sourcePoint"/>
                        <mxPoint x="488" y="1812" as="targetPoint"/>
                        <Array as="points">
                            <mxPoint x="638" y="1694"/>
                            <mxPoint x="628" y="1837"/>
                        </Array>
                        <mxPoint as="offset"/>
                    </mxGeometry>
                </mxCell>
                <mxCell id="76" value="" style="group" parent="1" vertex="1" connectable="0">
                    <mxGeometry x="391" y="1795" width="186.5" height="186.5" as="geometry"/>
                </mxCell>
                <mxCell id="77" value="" style="ellipse;whiteSpace=wrap;html=1;aspect=fixed;strokeWidth=2;" parent="76" vertex="1">
                    <mxGeometry width="186.5" height="186.5" as="geometry"/>
                </mxCell>
                <mxCell id="78" value="&lt;span style=&quot;font-size: 41px&quot;&gt;expf&lt;/span&gt;" style="ellipse;whiteSpace=wrap;html=1;aspect=fixed;strokeWidth=2;" parent="76" vertex="1">
                    <mxGeometry x="15.75" y="15.75" width="155" height="155" as="geometry"/>
                </mxCell>
                <mxCell id="79" value="0...9" style="curved=1;endArrow=classic;html=1;fontSize=41;strokeWidth=2;exitX=0.024;exitY=0.745;exitDx=0;exitDy=0;exitPerimeter=0;entryX=0.064;entryY=0.236;entryDx=0;entryDy=0;entryPerimeter=0;" parent="76" source="77" target="77" edge="1">
                    <mxGeometry x="-0.0168" y="12" width="50" height="50" relative="1" as="geometry">
                        <mxPoint x="279.97371491446324" y="87.0974738413484" as="sourcePoint"/>
                        <mxPoint x="337.9433719482315" y="-122.25059480552972" as="targetPoint"/>
                        <Array as="points">
                            <mxPoint x="-113" y="127"/>
                            <mxPoint x="-68" y="44"/>
                        </Array>
                        <mxPoint as="offset"/>
                    </mxGeometry>
                </mxCell>
                <mxCell id="80" value="}" style="curved=1;endArrow=classic;html=1;fontSize=41;strokeWidth=2;exitX=0.461;exitY=0.998;exitDx=0;exitDy=0;exitPerimeter=0;entryX=0.789;entryY=0.058;entryDx=0;entryDy=0;entryPerimeter=0;" parent="1" source="4" target="111" edge="1">
                    <mxGeometry x="0.2321" y="-26" width="50" height="50" relative="1" as="geometry">
                        <mxPoint x="152.99799999999993" y="773" as="sourcePoint"/>
                        <mxPoint x="337" y="881" as="targetPoint"/>
                        <Array as="points">
                            <mxPoint x="305" y="760"/>
                        </Array>
                        <mxPoint x="1" y="1" as="offset"/>
                    </mxGeometry>
                </mxCell>
                <mxCell id="91" value="{" style="curved=1;endArrow=classic;html=1;fontSize=41;strokeWidth=2;entryX=0;entryY=0;entryDx=0;entryDy=0;exitX=0.398;exitY=0.988;exitDx=0;exitDy=0;exitPerimeter=0;" parent="1" source="4" target="132" edge="1">
                    <mxGeometry x="0.3124" y="9" width="50" height="50" relative="1" as="geometry">
                        <mxPoint x="300.2319999999995" y="692.6799999999998" as="sourcePoint"/>
                        <mxPoint x="167.69922445804923" y="1033.6992244580488" as="targetPoint"/>
                        <Array as="points">
                            <mxPoint x="170" y="766"/>
                            <mxPoint x="96" y="891"/>
                        </Array>
                        <mxPoint y="1" as="offset"/>
                    </mxGeometry>
                </mxCell>
                <mxCell id="92" value=")" style="curved=1;endArrow=classic;html=1;fontSize=41;strokeWidth=2;exitX=0.56;exitY=0.998;exitDx=0;exitDy=0;exitPerimeter=0;entryX=1;entryY=0.5;entryDx=0;entryDy=0;" parent="1" source="4" target="135" edge="1">
                    <mxGeometry x="0.2321" y="-26" width="50" height="50" relative="1" as="geometry">
                        <mxPoint x="261.9520000000002" y="694.5359999999998" as="sourcePoint"/>
                        <mxPoint x="292.9999999999968" y="1265" as="targetPoint"/>
                        <Array as="points">
                            <mxPoint x="351" y="790"/>
                            <mxPoint x="397" y="1170"/>
                        </Array>
                        <mxPoint x="1" y="1" as="offset"/>
                    </mxGeometry>
                </mxCell>
                <mxCell id="93" value="(" style="curved=1;endArrow=classic;html=1;fontSize=41;strokeWidth=2;exitX=0.261;exitY=0.949;exitDx=0;exitDy=0;exitPerimeter=0;entryX=0;entryY=0;entryDx=0;entryDy=0;" parent="1" source="4" target="126" edge="1">
                    <mxGeometry x="0.5874" y="-16" width="50" height="50" relative="1" as="geometry">
                        <mxPoint x="284.9200000000001" y="694.5360000000001" as="sourcePoint"/>
                        <mxPoint x="144.69922445804013" y="1386.6992244580401" as="targetPoint"/>
                        <Array as="points">
                            <mxPoint x="68" y="805"/>
                            <mxPoint x="75" y="1145"/>
                        </Array>
                        <mxPoint x="1" y="1" as="offset"/>
                    </mxGeometry>
                </mxCell>
                <mxCell id="94" value=";" style="curved=1;endArrow=classic;html=1;fontSize=41;strokeWidth=2;exitX=0.189;exitY=0.915;exitDx=0;exitDy=0;entryX=1;entryY=0;entryDx=0;entryDy=0;exitPerimeter=0;" parent="1" source="4" target="114" edge="1">
                    <mxGeometry x="0.5784" y="-25" width="50" height="50" relative="1" as="geometry">
                        <mxPoint x="215.55200000000013" y="683.1680000000001" as="sourcePoint"/>
                        <mxPoint x="-79" y="1401.5" as="targetPoint"/>
                        <Array as="points">
                            <mxPoint x="50" y="808"/>
                            <mxPoint x="27" y="1149"/>
                        </Array>
                        <mxPoint as="offset"/>
                    </mxGeometry>
                </mxCell>
                <mxCell id="95" value=":" style="curved=1;endArrow=classic;html=1;fontSize=41;strokeWidth=2;exitX=0;exitY=1;exitDx=0;exitDy=0;entryX=0.92;entryY=0.229;entryDx=0;entryDy=0;entryPerimeter=0;" parent="1" source="4" target="117" edge="1">
                    <mxGeometry x="0.5784" y="-25" width="50" height="50" relative="1" as="geometry">
                        <mxPoint x="188.97561338236028" y="661.0243866176397" as="sourcePoint"/>
                        <mxPoint x="-139.41826443320588" y="1159.4212916594006" as="targetPoint"/>
                        <Array as="points">
                            <mxPoint x="44" y="804"/>
                            <mxPoint x="-26" y="1086"/>
                        </Array>
                        <mxPoint as="offset"/>
                    </mxGeometry>
                </mxCell>
                <mxCell id="96" value="," style="curved=1;endArrow=classic;html=1;fontSize=41;strokeWidth=2;exitX=0.099;exitY=0.805;exitDx=0;exitDy=0;entryX=0.975;entryY=0.325;entryDx=0;entryDy=0;entryPerimeter=0;exitPerimeter=0;" parent="1" source="4" target="108" edge="1">
                    <mxGeometry x="0.5784" y="-25" width="50" height="50" relative="1" as="geometry">
                        <mxPoint x="170.3456133823571" y="579.0043866176429" as="sourcePoint"/>
                        <mxPoint x="-123.89000000000033" y="1033.6" as="targetPoint"/>
                        <Array as="points">
                            <mxPoint x="56" y="766"/>
                            <mxPoint x="-35" y="970"/>
                        </Array>
                        <mxPoint as="offset"/>
                    </mxGeometry>
                </mxCell>
                <mxCell id="97" value="+" style="curved=1;endArrow=classic;html=1;fontSize=41;strokeWidth=2;exitX=0.045;exitY=0.739;exitDx=0;exitDy=0;entryX=1.002;entryY=0.262;entryDx=0;entryDy=0;exitPerimeter=0;entryPerimeter=0;" parent="1" source="4" target="130" edge="1">
                    <mxGeometry x="0.3521" y="-16" width="50" height="50" relative="1" as="geometry">
                        <mxPoint x="177.96800000000007" y="649.7600000000002" as="sourcePoint"/>
                        <mxPoint x="-66.00000000000273" y="813.5" as="targetPoint"/>
                        <Array as="points">
                            <mxPoint x="93" y="702"/>
                            <mxPoint x="28" y="777"/>
                        </Array>
                        <mxPoint as="offset"/>
                    </mxGeometry>
                </mxCell>
                <mxCell id="102" value="*" style="curved=1;endArrow=classic;html=1;fontSize=41;strokeWidth=2;exitX=0.009;exitY=0.667;exitDx=0;exitDy=0;exitPerimeter=0;entryX=0.779;entryY=0.066;entryDx=0;entryDy=0;entryPerimeter=0;" parent="1" source="4" target="120" edge="1">
                    <mxGeometry x="0.3521" y="-16" width="50" height="50" relative="1" as="geometry">
                        <mxPoint x="165.44000000000005" y="634.4479999999999" as="sourcePoint"/>
                        <mxPoint x="-422.6992244580456" y="1346.6992244580456" as="targetPoint"/>
                        <Array as="points">
                            <mxPoint x="-76" y="646"/>
                            <mxPoint x="-228" y="724"/>
                            <mxPoint x="-293" y="914"/>
                            <mxPoint x="-336" y="1219"/>
                        </Array>
                        <mxPoint as="offset"/>
                    </mxGeometry>
                </mxCell>
                <mxCell id="103" value="-" style="curved=1;endArrow=classic;html=1;fontSize=41;strokeWidth=2;entryX=0.95;entryY=0.259;entryDx=0;entryDy=0;entryPerimeter=0;" parent="1" source="4" target="123" edge="1">
                    <mxGeometry x="0.3521" y="-16" width="50" height="50" relative="1" as="geometry">
                        <mxPoint x="157.0880000000002" y="617.7440000000001" as="sourcePoint"/>
                        <mxPoint x="-481.68455217773953" y="1180.854001049513" as="targetPoint"/>
                        <Array as="points">
                            <mxPoint x="-58" y="624"/>
                            <mxPoint x="-231" y="666"/>
                            <mxPoint x="-326" y="866"/>
                            <mxPoint x="-366" y="1124"/>
                        </Array>
                        <mxPoint as="offset"/>
                    </mxGeometry>
                </mxCell>
                <mxCell id="104" value="=" style="curved=1;endArrow=classic;html=1;fontSize=41;strokeWidth=2;exitX=0;exitY=0.5;exitDx=0;exitDy=0;entryX=0.75;entryY=0.051;entryDx=0;entryDy=0;entryPerimeter=0;" parent="1" source="4" target="226" edge="1">
                    <mxGeometry x="0.3732" y="-19" width="50" height="50" relative="1" as="geometry">
                        <mxPoint x="106.54101453510401" y="541.915513341456" as="sourcePoint"/>
                        <mxPoint x="-336" y="734" as="targetPoint"/>
                        <Array as="points">
                            <mxPoint x="-91" y="613"/>
                            <mxPoint x="-271" y="660"/>
                        </Array>
                        <mxPoint x="1" as="offset"/>
                    </mxGeometry>
                </mxCell>
                <mxCell id="107" value="" style="group" parent="1" vertex="1" connectable="0">
                    <mxGeometry x="-271" y="921" width="170.5" height="170.5" as="geometry"/>
                </mxCell>
                <mxCell id="108" value="" style="ellipse;whiteSpace=wrap;html=1;aspect=fixed;strokeWidth=2;" parent="107" vertex="1">
                    <mxGeometry width="170.5" height="170.5" as="geometry"/>
                </mxCell>
                <mxCell id="109" value="&lt;span style=&quot;font-size: 41px&quot;&gt;,&lt;/span&gt;" style="ellipse;whiteSpace=wrap;html=1;aspect=fixed;strokeWidth=2;" parent="107" vertex="1">
                    <mxGeometry x="7.75" y="7.75" width="155" height="155" as="geometry"/>
                </mxCell>
                <mxCell id="110" value="" style="group" parent="1" vertex="1" connectable="0">
                    <mxGeometry x="145" y="806" width="170.5" height="170.5" as="geometry"/>
                </mxCell>
                <mxCell id="111" value="" style="ellipse;whiteSpace=wrap;html=1;aspect=fixed;strokeWidth=2;" parent="110" vertex="1">
                    <mxGeometry width="170.5" height="170.5" as="geometry"/>
                </mxCell>
                <mxCell id="112" value="&lt;span style=&quot;font-size: 41px&quot;&gt;}&lt;/span&gt;" style="ellipse;whiteSpace=wrap;html=1;aspect=fixed;strokeWidth=2;" parent="110" vertex="1">
                    <mxGeometry x="7.75" y="7.75" width="155" height="155" as="geometry"/>
                </mxCell>
                <mxCell id="113" value="" style="group" parent="1" vertex="1" connectable="0">
                    <mxGeometry x="-265" y="1312.25" width="170.5" height="170.5" as="geometry"/>
                </mxCell>
                <mxCell id="114" value="" style="ellipse;whiteSpace=wrap;html=1;aspect=fixed;strokeWidth=2;" parent="113" vertex="1">
                    <mxGeometry width="170.5" height="170.5" as="geometry"/>
                </mxCell>
                <mxCell id="115" value="&lt;span style=&quot;font-size: 41px&quot;&gt;;&lt;/span&gt;" style="ellipse;whiteSpace=wrap;html=1;aspect=fixed;strokeWidth=2;" parent="113" vertex="1">
                    <mxGeometry x="7.75" y="7.75" width="155" height="155" as="geometry"/>
                </mxCell>
                <mxCell id="116" value="" style="group" parent="1" vertex="1" connectable="0">
                    <mxGeometry x="-292" y="1121" width="170.5" height="170.5" as="geometry"/>
                </mxCell>
                <mxCell id="117" value="" style="ellipse;whiteSpace=wrap;html=1;aspect=fixed;strokeWidth=2;" parent="116" vertex="1">
                    <mxGeometry width="170.5" height="170.5" as="geometry"/>
                </mxCell>
                <mxCell id="118" value="&lt;span style=&quot;font-size: 41px&quot;&gt;:&lt;/span&gt;" style="ellipse;whiteSpace=wrap;html=1;aspect=fixed;strokeWidth=2;" parent="116" vertex="1">
                    <mxGeometry x="7.75" y="7.75" width="155" height="155" as="geometry"/>
                </mxCell>
                <mxCell id="119" value="" style="group" parent="1" vertex="1" connectable="0">
                    <mxGeometry x="-541" y="1305" width="170.5" height="170.5" as="geometry"/>
                </mxCell>
                <mxCell id="120" value="" style="ellipse;whiteSpace=wrap;html=1;aspect=fixed;strokeWidth=2;" parent="119" vertex="1">
                    <mxGeometry width="170.5" height="170.5" as="geometry"/>
                </mxCell>
                <mxCell id="121" value="&lt;span style=&quot;font-size: 41px&quot;&gt;*&lt;/span&gt;" style="ellipse;whiteSpace=wrap;html=1;aspect=fixed;strokeWidth=2;" parent="119" vertex="1">
                    <mxGeometry x="7.75" y="7.75" width="155" height="155" as="geometry"/>
                </mxCell>
                <mxCell id="122" value="" style="group" parent="1" vertex="1" connectable="0">
                    <mxGeometry x="-658" y="1141.75" width="170.5" height="170.5" as="geometry"/>
                </mxCell>
                <mxCell id="123" value="" style="ellipse;whiteSpace=wrap;html=1;aspect=fixed;strokeWidth=2;" parent="122" vertex="1">
                    <mxGeometry width="170.5" height="170.5" as="geometry"/>
                </mxCell>
                <mxCell id="124" value="&lt;span style=&quot;font-size: 41px&quot;&gt;-&lt;/span&gt;" style="ellipse;whiteSpace=wrap;html=1;aspect=fixed;strokeWidth=2;" parent="122" vertex="1">
                    <mxGeometry x="7.75" y="7.75" width="155" height="155" as="geometry"/>
                </mxCell>
                <mxCell id="125" value="" style="group" parent="1" vertex="1" connectable="0">
                    <mxGeometry x="94" y="1360" width="170.5" height="170.5" as="geometry"/>
                </mxCell>
                <mxCell id="126" value="" style="ellipse;whiteSpace=wrap;html=1;aspect=fixed;strokeWidth=2;" parent="125" vertex="1">
                    <mxGeometry width="170.5" height="170.5" as="geometry"/>
                </mxCell>
                <mxCell id="127" value="&lt;span style=&quot;font-size: 41px&quot;&gt;(&lt;/span&gt;" style="ellipse;whiteSpace=wrap;html=1;aspect=fixed;strokeWidth=2;" parent="125" vertex="1">
                    <mxGeometry x="7.75" y="7.75" width="155" height="155" as="geometry"/>
                </mxCell>
                <mxCell id="128" value="" style="group" parent="1" vertex="1" connectable="0">
                    <mxGeometry x="-241" y="746" width="170.5" height="170.5" as="geometry"/>
                </mxCell>
                <mxCell id="129" value="" style="ellipse;whiteSpace=wrap;html=1;aspect=fixed;strokeWidth=2;" parent="128" vertex="1">
                    <mxGeometry width="170.5" height="170.5" as="geometry"/>
                </mxCell>
                <mxCell id="130" value="&lt;span style=&quot;font-size: 41px&quot;&gt;+&lt;/span&gt;" style="ellipse;whiteSpace=wrap;html=1;aspect=fixed;strokeWidth=2;" parent="128" vertex="1">
                    <mxGeometry x="7.75" y="7.75" width="155" height="155" as="geometry"/>
                </mxCell>
                <mxCell id="131" value="" style="group" parent="1" vertex="1" connectable="0">
                    <mxGeometry x="139" y="990" width="170.5" height="170.5" as="geometry"/>
                </mxCell>
                <mxCell id="132" value="" style="ellipse;whiteSpace=wrap;html=1;aspect=fixed;strokeWidth=2;" parent="131" vertex="1">
                    <mxGeometry width="170.5" height="170.5" as="geometry"/>
                </mxCell>
                <mxCell id="133" value="&lt;span style=&quot;font-size: 41px&quot;&gt;{&lt;/span&gt;" style="ellipse;whiteSpace=wrap;html=1;aspect=fixed;strokeWidth=2;" parent="131" vertex="1">
                    <mxGeometry x="7.75" y="7.75" width="155" height="155" as="geometry"/>
                </mxCell>
                <mxCell id="134" value="" style="group" parent="1" vertex="1" connectable="0">
                    <mxGeometry x="124" y="1170" width="170.5" height="170.5" as="geometry"/>
                </mxCell>
                <mxCell id="135" value="" style="ellipse;whiteSpace=wrap;html=1;aspect=fixed;strokeWidth=2;" parent="134" vertex="1">
                    <mxGeometry width="170.5" height="170.5" as="geometry"/>
                </mxCell>
                <mxCell id="136" value="&lt;span style=&quot;font-size: 41px&quot;&gt;)&lt;/span&gt;" style="ellipse;whiteSpace=wrap;html=1;aspect=fixed;strokeWidth=2;" parent="134" vertex="1">
                    <mxGeometry x="7.75" y="7.75" width="155" height="155" as="geometry"/>
                </mxCell>
                <mxCell id="141" value="&lt;span style=&quot;font-size: 41px&quot;&gt;eq2&lt;/span&gt;" style="ellipse;whiteSpace=wrap;html=1;aspect=fixed;strokeWidth=2;" parent="1" vertex="1">
                    <mxGeometry x="-622" y="939" width="155" height="155" as="geometry"/>
                </mxCell>
                <mxCell id="142" value="=" style="curved=1;endArrow=classic;html=1;fontSize=41;strokeWidth=2;exitX=0.292;exitY=0.964;exitDx=0;exitDy=0;exitPerimeter=0;" parent="1" source="225" target="141" edge="1">
                    <mxGeometry x="0.0779" y="-32" width="50" height="50" relative="1" as="geometry">
                        <mxPoint x="-408" y="938" as="sourcePoint"/>
                        <mxPoint x="-328.69922445804514" y="768.6992244580456" as="targetPoint"/>
                        <Array as="points">
                            <mxPoint x="-439" y="927"/>
                        </Array>
                        <mxPoint as="offset"/>
                    </mxGeometry>
                </mxCell>
                <mxCell id="144" value="=" style="curved=1;endArrow=classic;html=1;fontSize=41;strokeWidth=2;entryX=1;entryY=0.5;entryDx=0;entryDy=0;" parent="1" source="141" target="146" edge="1">
                    <mxGeometry x="0.0779" y="-32" width="50" height="50" relative="1" as="geometry">
                        <mxPoint x="-692.2199999999996" y="1011" as="sourcePoint"/>
                        <mxPoint x="-785" y="1069" as="targetPoint"/>
                        <Array as="points">
                            <mxPoint x="-698" y="1098"/>
                        </Array>
                        <mxPoint as="offset"/>
                    </mxGeometry>
                </mxCell>
                <mxCell id="145" value="" style="group" parent="1" vertex="1" connectable="0">
                    <mxGeometry x="-886" y="1023" width="170.5" height="170.5" as="geometry"/>
                </mxCell>
                <mxCell id="146" value="" style="ellipse;whiteSpace=wrap;html=1;aspect=fixed;strokeWidth=2;" parent="145" vertex="1">
                    <mxGeometry width="170.5" height="170.5" as="geometry"/>
                </mxCell>
                <mxCell id="147" value="&lt;span style=&quot;font-size: 41px&quot;&gt;eqf&lt;/span&gt;" style="ellipse;whiteSpace=wrap;html=1;aspect=fixed;strokeWidth=2;" parent="145" vertex="1">
                    <mxGeometry x="7.75" y="7.75" width="155" height="155" as="geometry"/>
                </mxCell>
                <mxCell id="150" value="&lt;span style=&quot;font-size: 41px&quot;&gt;neq2&lt;/span&gt;" style="ellipse;whiteSpace=wrap;html=1;aspect=fixed;strokeWidth=2;" parent="1" vertex="1">
                    <mxGeometry x="-740" y="758" width="155" height="155" as="geometry"/>
                </mxCell>
                <mxCell id="151" value="&lt;span style=&quot;font-size: 41px&quot;&gt;neq1&lt;/span&gt;" style="ellipse;whiteSpace=wrap;html=1;aspect=fixed;strokeWidth=2;" parent="1" vertex="1">
                    <mxGeometry x="-555" y="596" width="155" height="155" as="geometry"/>
                </mxCell>
                <mxCell id="152" value="!" style="curved=1;endArrow=classic;html=1;fontSize=41;strokeWidth=2;exitX=0.008;exitY=0.425;exitDx=0;exitDy=0;exitPerimeter=0;entryX=0.975;entryY=0.317;entryDx=0;entryDy=0;entryPerimeter=0;" parent="1" source="4" target="151" edge="1">
                    <mxGeometry x="0.3693" y="-9" width="50" height="50" relative="1" as="geometry">
                        <mxPoint x="135.7000000000018" y="515" as="sourcePoint"/>
                        <mxPoint x="-416" y="640" as="targetPoint"/>
                        <Array as="points">
                            <mxPoint x="-283" y="590"/>
                        </Array>
                        <mxPoint as="offset"/>
                    </mxGeometry>
                </mxCell>
                <mxCell id="153" value="=" style="curved=1;endArrow=classic;html=1;fontSize=41;strokeWidth=2;exitX=0;exitY=1;exitDx=0;exitDy=0;entryX=0.973;entryY=0.343;entryDx=0;entryDy=0;entryPerimeter=0;" parent="1" source="151" target="150" edge="1">
                    <mxGeometry x="-0.3562" y="-18" width="50" height="50" relative="1" as="geometry">
                        <mxPoint x="-527.5699999999999" y="743" as="sourcePoint"/>
                        <mxPoint x="-586.9997422514041" y="827.3307399943433" as="targetPoint"/>
                        <Array as="points">
                            <mxPoint x="-540.5699999999999" y="788"/>
                        </Array>
                        <mxPoint y="-1" as="offset"/>
                    </mxGeometry>
                </mxCell>
                <mxCell id="156" value="=" style="curved=1;endArrow=classic;html=1;fontSize=41;strokeWidth=2;entryX=0.995;entryY=0.582;entryDx=0;entryDy=0;exitX=0.082;exitY=0.765;exitDx=0;exitDy=0;exitPerimeter=0;entryPerimeter=0;" parent="1" source="150" target="158" edge="1">
                    <mxGeometry x="-0.6981" y="-30" width="50" height="50" relative="1" as="geometry">
                        <mxPoint x="-704.4000404687529" y="894.9974047356905" as="sourcePoint"/>
                        <mxPoint x="-798.69" y="915.8949999999995" as="targetPoint"/>
                        <Array as="points">
                            <mxPoint x="-750" y="922"/>
                        </Array>
                        <mxPoint y="-1" as="offset"/>
                    </mxGeometry>
                </mxCell>
                <mxCell id="157" value="" style="group" parent="1" vertex="1" connectable="0">
                    <mxGeometry x="-978" y="835" width="170.5" height="170.5" as="geometry"/>
                </mxCell>
                <mxCell id="158" value="" style="ellipse;whiteSpace=wrap;html=1;aspect=fixed;strokeWidth=2;" parent="157" vertex="1">
                    <mxGeometry width="170.5" height="170.5" as="geometry"/>
                </mxCell>
                <mxCell id="159" value="&lt;span style=&quot;font-size: 41px&quot;&gt;neqf&lt;/span&gt;" style="ellipse;whiteSpace=wrap;html=1;aspect=fixed;strokeWidth=2;" parent="157" vertex="1">
                    <mxGeometry x="7.75" y="7.75" width="155" height="155" as="geometry"/>
                </mxCell>
                <mxCell id="160" value="&amp;lt;" style="curved=1;endArrow=classic;html=1;fontSize=41;strokeWidth=2;exitX=0.031;exitY=0.366;exitDx=0;exitDy=0;exitPerimeter=0;entryX=1;entryY=0.5;entryDx=0;entryDy=0;" parent="1" source="4" target="164" edge="1">
                    <mxGeometry x="0.3732" y="-19" width="50" height="50" relative="1" as="geometry">
                        <mxPoint x="156.85599999999977" y="561.5999999999999" as="sourcePoint"/>
                        <mxPoint x="-504" y="538" as="targetPoint"/>
                        <Array as="points">
                            <mxPoint x="-133" y="555"/>
                            <mxPoint x="-269" y="550"/>
                        </Array>
                        <mxPoint x="1" as="offset"/>
                    </mxGeometry>
                </mxCell>
                <mxCell id="162" value="=" style="curved=1;endArrow=classic;html=1;fontSize=41;strokeWidth=2;exitX=0.407;exitY=0.999;exitDx=0;exitDy=0;exitPerimeter=0;entryX=1;entryY=0.5;entryDx=0;entryDy=0;" parent="1" source="164" target="168" edge="1">
                    <mxGeometry x="0.3732" y="-19" width="50" height="50" relative="1" as="geometry">
                        <mxPoint x="-639" y="601" as="sourcePoint"/>
                        <mxPoint x="-744.0000000000014" y="695.5" as="targetPoint"/>
                        <Array as="points">
                            <mxPoint x="-564" y="550"/>
                            <mxPoint x="-663" y="689"/>
                        </Array>
                        <mxPoint x="1" as="offset"/>
                    </mxGeometry>
                </mxCell>
                <mxCell id="163" value="" style="group" parent="1" vertex="1" connectable="0">
                    <mxGeometry x="-460" y="393" width="170.5" height="170.5" as="geometry"/>
                </mxCell>
                <mxCell id="164" value="" style="ellipse;whiteSpace=wrap;html=1;aspect=fixed;strokeWidth=2;" parent="163" vertex="1">
                    <mxGeometry width="170.5" height="170.5" as="geometry"/>
                </mxCell>
                <mxCell id="165" value="&lt;span style=&quot;font-size: 41px&quot;&gt;less&lt;/span&gt;" style="ellipse;whiteSpace=wrap;html=1;aspect=fixed;strokeWidth=2;" parent="163" vertex="1">
                    <mxGeometry x="7.75" y="7.75" width="155" height="155" as="geometry"/>
                </mxCell>
                <mxCell id="167" value="" style="group" parent="1" vertex="1" connectable="0">
                    <mxGeometry x="-916" y="603.5" width="170.5" height="170.5" as="geometry"/>
                </mxCell>
                <mxCell id="168" value="" style="ellipse;whiteSpace=wrap;html=1;aspect=fixed;strokeWidth=2;" parent="167" vertex="1">
                    <mxGeometry width="170.5" height="170.5" as="geometry"/>
                </mxCell>
                <mxCell id="169" value="&lt;span style=&quot;font-size: 41px&quot;&gt;leeq&lt;/span&gt;" style="ellipse;whiteSpace=wrap;html=1;aspect=fixed;strokeWidth=2;" parent="167" vertex="1">
                    <mxGeometry x="7.75" y="7.75" width="155" height="155" as="geometry"/>
                </mxCell>
                <mxCell id="170" value="?" style="curved=1;endArrow=classic;html=1;fontSize=41;strokeWidth=2;exitX=0;exitY=0.5;exitDx=0;exitDy=0;entryX=1;entryY=0.5;entryDx=0;entryDy=0;" parent="1" source="164" target="171" edge="1">
                    <mxGeometry x="0.3732" y="-19" width="50" height="50" relative="1" as="geometry">
                        <mxPoint x="-743.1064999999999" y="444.9994999999998" as="sourcePoint"/>
                        <mxPoint x="-859" y="539" as="targetPoint"/>
                        <Array as="points">
                            <mxPoint x="-561" y="466"/>
                        </Array>
                        <mxPoint x="1" as="offset"/>
                    </mxGeometry>
                </mxCell>
                <mxCell id="171" value="&lt;span style=&quot;font-size: 41px&quot;&gt;beg1&lt;/span&gt;" style="ellipse;whiteSpace=wrap;html=1;aspect=fixed;strokeWidth=2;" parent="1" vertex="1">
                    <mxGeometry x="-750" y="414" width="155" height="155" as="geometry"/>
                </mxCell>
                <mxCell id="172" value="&lt;span style=&quot;font-size: 41px&quot;&gt;beg2&lt;/span&gt;" style="ellipse;whiteSpace=wrap;html=1;aspect=fixed;strokeWidth=2;" parent="1" vertex="1">
                    <mxGeometry x="-1041" y="437" width="155" height="155" as="geometry"/>
                </mxCell>
                <mxCell id="173" value="&lt;span style=&quot;font-size: 41px&quot;&gt;beg3&lt;/span&gt;" style="ellipse;whiteSpace=wrap;html=1;aspect=fixed;strokeWidth=2;" parent="1" vertex="1">
                    <mxGeometry x="-1306" y="453" width="155" height="155" as="geometry"/>
                </mxCell>
                <mxCell id="176" value="p" style="curved=1;endArrow=classic;html=1;fontSize=41;strokeWidth=2;entryX=1;entryY=0.5;entryDx=0;entryDy=0;" parent="1" source="171" target="172" edge="1">
                    <mxGeometry x="-0.3556" y="-13" width="50" height="50" relative="1" as="geometry">
                        <mxPoint x="-993" y="551" as="sourcePoint"/>
                        <mxPoint x="-1083" y="564" as="targetPoint"/>
                        <Array as="points">
                            <mxPoint x="-797" y="549"/>
                        </Array>
                        <mxPoint as="offset"/>
                    </mxGeometry>
                </mxCell>
                <mxCell id="177" value="h" style="curved=1;endArrow=classic;html=1;fontSize=41;strokeWidth=2;exitX=0.02;exitY=0.638;exitDx=0;exitDy=0;exitPerimeter=0;entryX=0.997;entryY=0.407;entryDx=0;entryDy=0;entryPerimeter=0;" parent="1" source="172" target="173" edge="1">
                    <mxGeometry x="-0.3556" y="-13" width="50" height="50" relative="1" as="geometry">
                        <mxPoint x="-1223" y="557.7500000000005" as="sourcePoint"/>
                        <mxPoint x="-1297.999999999999" y="554.25" as="targetPoint"/>
                        <Array as="points">
                            <mxPoint x="-1090" y="552"/>
                        </Array>
                        <mxPoint as="offset"/>
                    </mxGeometry>
                </mxCell>
                <mxCell id="179" value="" style="group" parent="1" vertex="1" connectable="0">
                    <mxGeometry x="-1843" y="421.5" width="170.5" height="170.5" as="geometry"/>
                </mxCell>
                <mxCell id="180" value="" style="ellipse;whiteSpace=wrap;html=1;aspect=fixed;strokeWidth=2;" parent="179" vertex="1">
                    <mxGeometry width="170.5" height="170.5" as="geometry"/>
                </mxCell>
                <mxCell id="181" value="&lt;span style=&quot;font-size: 41px&quot;&gt;begf&lt;/span&gt;" style="ellipse;whiteSpace=wrap;html=1;aspect=fixed;strokeWidth=2;" parent="179" vertex="1">
                    <mxGeometry x="7.75" y="7.75" width="155" height="155" as="geometry"/>
                </mxCell>
                <mxCell id="182" value="p" style="curved=1;endArrow=classic;html=1;fontSize=41;strokeWidth=2;exitX=0.011;exitY=0.647;exitDx=0;exitDy=0;exitPerimeter=0;" parent="1" source="173" target="221" edge="1">
                    <mxGeometry x="-0.3556" y="-13" width="50" height="50" relative="1" as="geometry">
                        <mxPoint x="-1459.9999999999998" y="565.5" as="sourcePoint"/>
                        <mxPoint x="-1375" y="622" as="targetPoint"/>
                        <Array as="points">
                            <mxPoint x="-1348" y="586"/>
                        </Array>
                        <mxPoint as="offset"/>
                    </mxGeometry>
                </mxCell>
                <mxCell id="183" value="&amp;gt;" style="curved=1;endArrow=classic;html=1;fontSize=41;strokeWidth=2;exitX=0.037;exitY=0.328;exitDx=0;exitDy=0;exitPerimeter=0;entryX=0.689;entryY=0.964;entryDx=0;entryDy=0;entryPerimeter=0;" parent="1" source="4" target="185" edge="1">
                    <mxGeometry x="0.3732" y="-19" width="50" height="50" relative="1" as="geometry">
                        <mxPoint x="226.692" y="468.66200000000026" as="sourcePoint"/>
                        <mxPoint x="-155" y="434" as="targetPoint"/>
                        <Array as="points">
                            <mxPoint x="-125" y="502"/>
                        </Array>
                        <mxPoint x="1" as="offset"/>
                    </mxGeometry>
                </mxCell>
                <mxCell id="184" value="" style="group" parent="1" vertex="1" connectable="0">
                    <mxGeometry x="-265" y="298" width="170.5" height="170.5" as="geometry"/>
                </mxCell>
                <mxCell id="185" value="" style="ellipse;whiteSpace=wrap;html=1;aspect=fixed;strokeWidth=2;" parent="184" vertex="1">
                    <mxGeometry width="170.5" height="170.5" as="geometry"/>
                </mxCell>
                <mxCell id="186" value="&lt;span style=&quot;font-size: 41px&quot;&gt;gr&lt;/span&gt;" style="ellipse;whiteSpace=wrap;html=1;aspect=fixed;strokeWidth=2;" parent="184" vertex="1">
                    <mxGeometry x="7.75" y="7.75" width="155" height="155" as="geometry"/>
                </mxCell>
                <mxCell id="187" value="=" style="curved=1;endArrow=classic;html=1;fontSize=41;strokeWidth=2;exitX=0.031;exitY=0.359;exitDx=0;exitDy=0;exitPerimeter=0;entryX=0.917;entryY=0.773;entryDx=0;entryDy=0;entryPerimeter=0;" parent="1" source="185" target="189" edge="1">
                    <mxGeometry x="-0.3562" y="-18" width="50" height="50" relative="1" as="geometry">
                        <mxPoint x="-278.12077554195713" y="285.0007755419576" as="sourcePoint"/>
                        <mxPoint x="-379" y="299" as="targetPoint"/>
                        <Array as="points">
                            <mxPoint x="-326" y="348"/>
                        </Array>
                        <mxPoint y="-1" as="offset"/>
                    </mxGeometry>
                </mxCell>
                <mxCell id="192" value="/" style="curved=1;endArrow=classic;html=1;fontSize=41;strokeWidth=2;exitX=0;exitY=0;exitDx=0;exitDy=0;entryX=0;entryY=1;entryDx=0;entryDy=0;" parent="1" source="4" target="203" edge="1">
                    <mxGeometry x="0.3521" y="-16" width="50" height="50" relative="1" as="geometry">
                        <mxPoint x="433.76799999999974" y="-393.00599999999986" as="sourcePoint"/>
                        <mxPoint x="-390" y="-172" as="targetPoint"/>
                        <Array as="points">
                            <mxPoint x="-63" y="322"/>
                            <mxPoint x="-440" y="-15"/>
                        </Array>
                        <mxPoint as="offset"/>
                    </mxGeometry>
                </mxCell>
                <mxCell id="193" value="" style="group" parent="1" vertex="1" connectable="0">
                    <mxGeometry x="-86" y="1439" width="170.5" height="170.5" as="geometry"/>
                </mxCell>
                <mxCell id="194" value="" style="ellipse;whiteSpace=wrap;html=1;aspect=fixed;strokeWidth=2;" parent="193" vertex="1">
                    <mxGeometry width="170.5" height="170.5" as="geometry"/>
                </mxCell>
                <mxCell id="195" value="&lt;span style=&quot;font-size: 41px&quot;&gt;.&lt;/span&gt;" style="ellipse;whiteSpace=wrap;html=1;aspect=fixed;strokeWidth=2;" parent="193" vertex="1">
                    <mxGeometry x="7.75" y="7.75" width="155" height="155" as="geometry"/>
                </mxCell>
                <mxCell id="196" value="." style="curved=1;endArrow=classic;html=1;fontSize=41;strokeWidth=2;exitX=0.69;exitY=0.98;exitDx=0;exitDy=0;exitPerimeter=0;entryX=1;entryY=1;entryDx=0;entryDy=0;" parent="1" source="4" target="194" edge="1">
                    <mxGeometry x="0.4272" y="-3" width="50" height="50" relative="1" as="geometry">
                        <mxPoint x="215.55199999999968" y="683.1680000000001" as="sourcePoint"/>
                        <mxPoint x="128.96914690382619" y="1394.9691469038257" as="targetPoint"/>
                        <Array as="points">
                            <mxPoint x="404" y="843"/>
                            <mxPoint x="431" y="1043"/>
                            <mxPoint x="404" y="1291"/>
                            <mxPoint x="369" y="1416"/>
                            <mxPoint x="239" y="1576"/>
                        </Array>
                        <mxPoint x="-1" as="offset"/>
                    </mxGeometry>
                </mxCell>
                <mxCell id="202" value="" style="group" parent="1" vertex="1" connectable="0">
                    <mxGeometry x="-426" y="-327" width="170.5" height="170.5" as="geometry"/>
                </mxCell>
                <mxCell id="203" value="" style="ellipse;whiteSpace=wrap;html=1;aspect=fixed;strokeWidth=2;" parent="202" vertex="1">
                    <mxGeometry width="170.5" height="170.5" as="geometry"/>
                </mxCell>
                <mxCell id="204" value="&lt;span style=&quot;font-size: 41px&quot;&gt;div&lt;/span&gt;" style="ellipse;whiteSpace=wrap;html=1;aspect=fixed;strokeWidth=2;" parent="202" vertex="1">
                    <mxGeometry x="7.75" y="7.75" width="155" height="155" as="geometry"/>
                </mxCell>
                <mxCell id="205" value="" style="group" parent="1" vertex="1" connectable="0">
                    <mxGeometry x="-491" y="145" width="170.5" height="170.5" as="geometry"/>
                </mxCell>
                <mxCell id="189" value="" style="ellipse;whiteSpace=wrap;html=1;aspect=fixed;strokeWidth=2;" parent="205" vertex="1">
                    <mxGeometry width="170.5" height="170.5" as="geometry"/>
                </mxCell>
                <mxCell id="190" value="&lt;span style=&quot;font-size: 41px&quot;&gt;greq&lt;/span&gt;" style="ellipse;whiteSpace=wrap;html=1;aspect=fixed;strokeWidth=2;" parent="205" vertex="1">
                    <mxGeometry x="7.75" y="7.75" width="155" height="155" as="geometry"/>
                </mxCell>
                <mxCell id="206" value="/" style="curved=1;endArrow=classic;html=1;fontSize=41;strokeWidth=2;exitX=1;exitY=1;exitDx=0;exitDy=0;entryX=0.5;entryY=0;entryDx=0;entryDy=0;" parent="1" source="203" target="207" edge="1">
                    <mxGeometry x="-0.3562" y="-18" width="50" height="50" relative="1" as="geometry">
                        <mxPoint x="-161.06450000000004" y="-28.590500000000077" as="sourcePoint"/>
                        <mxPoint x="-192" y="-36" as="targetPoint"/>
                        <Array as="points">
                            <mxPoint x="-181" y="-154"/>
                        </Array>
                        <mxPoint y="-1" as="offset"/>
                    </mxGeometry>
                </mxCell>
                <mxCell id="207" value="&lt;span style=&quot;font-size: 41px&quot;&gt;com&lt;/span&gt;" style="ellipse;whiteSpace=wrap;html=1;aspect=fixed;strokeWidth=2;" parent="1" vertex="1">
                    <mxGeometry x="-239" y="-58" width="155" height="155" as="geometry"/>
                </mxCell>
                <mxCell id="208" value="&lt;span style=&quot;color: rgb(32 , 33 , 36) ; font-family: &amp;#34;arial&amp;#34; , sans-serif ; font-size: 29px ; text-align: left&quot;&gt;Î£ - \n&lt;/span&gt;" style="curved=1;endArrow=classic;html=1;strokeWidth=2;entryX=0;entryY=0.5;entryDx=0;entryDy=0;exitX=0.248;exitY=0.027;exitDx=0;exitDy=0;exitPerimeter=0;" parent="1" source="207" target="207" edge="1">
                    <mxGeometry width="50" height="50" relative="1" as="geometry">
                        <mxPoint x="-34.30077554195759" y="88.69922445804241" as="sourcePoint"/>
                        <mxPoint x="75.30077554195759" y="88.69922445804332" as="targetPoint"/>
                        <Array as="points">
                            <mxPoint x="-266" y="-92"/>
                            <mxPoint x="-318" y="-16"/>
                        </Array>
                    </mxGeometry>
                </mxCell>
                <mxCell id="209" value="/" style="curved=1;endArrow=classic;html=1;fontSize=41;strokeWidth=2;exitX=0.5;exitY=1;exitDx=0;exitDy=0;entryX=0.176;entryY=0.097;entryDx=0;entryDy=0;entryPerimeter=0;" parent="1" source="207" target="4" edge="1">
                    <mxGeometry x="-0.3389" y="2" width="50" height="50" relative="1" as="geometry">
                        <mxPoint x="-71.99914690384574" y="168.51085309615428" as="sourcePoint"/>
                        <mxPoint x="46.97" y="291.98" as="targetPoint"/>
                        <Array as="points">
                            <mxPoint x="-144" y="189"/>
                            <mxPoint x="51" y="372"/>
                            <mxPoint x="152" y="441"/>
                        </Array>
                        <mxPoint y="1" as="offset"/>
                    </mxGeometry>
                </mxCell>
                <mxCell id="210" value="*" style="curved=1;endArrow=classic;html=1;fontSize=41;strokeWidth=2;exitX=0.976;exitY=0.272;exitDx=0;exitDy=0;exitPerimeter=0;" parent="1" source="203" target="212" edge="1">
                    <mxGeometry x="-0.3562" y="-18" width="50" height="50" relative="1" as="geometry">
                        <mxPoint x="-220.98914690384393" y="-257.9991469038439" as="sourcePoint"/>
                        <mxPoint x="-71.80077554195532" y="-265.3007755419553" as="targetPoint"/>
                        <Array as="points">
                            <mxPoint x="-188" y="-301"/>
                        </Array>
                        <mxPoint y="-1" as="offset"/>
                    </mxGeometry>
                </mxCell>
                <mxCell id="212" value="&lt;span style=&quot;font-size: 41px&quot;&gt;combl1&lt;/span&gt;" style="ellipse;whiteSpace=wrap;html=1;aspect=fixed;strokeWidth=2;" parent="1" vertex="1">
                    <mxGeometry x="-84" y="-311.5" width="155" height="155" as="geometry"/>
                </mxCell>
                <mxCell id="213" value="&lt;span style=&quot;color: rgb(32 , 33 , 36) ; font-family: &amp;#34;arial&amp;#34; , sans-serif ; font-size: 29px ; text-align: left&quot;&gt;Î£ - *&lt;/span&gt;" style="curved=1;endArrow=classic;html=1;strokeWidth=2;entryX=0.255;entryY=0.053;entryDx=0;entryDy=0;exitX=1;exitY=0;exitDx=0;exitDy=0;entryPerimeter=0;" parent="1" source="212" target="212" edge="1">
                    <mxGeometry width="50" height="50" relative="1" as="geometry">
                        <mxPoint x="71.00000000000006" y="-424.81500000000005" as="sourcePoint"/>
                        <mxPoint x="32.56" y="-351.5" as="targetPoint"/>
                        <Array as="points">
                            <mxPoint x="71" y="-360"/>
                            <mxPoint x="-46.44" y="-387"/>
                        </Array>
                    </mxGeometry>
                </mxCell>
                <mxCell id="214" value="*" style="curved=1;endArrow=classic;html=1;fontSize=41;strokeWidth=2;exitX=1;exitY=0.5;exitDx=0;exitDy=0;entryX=0.431;entryY=0.02;entryDx=0;entryDy=0;entryPerimeter=0;" parent="1" source="212" target="215" edge="1">
                    <mxGeometry x="-0.3562" y="-18" width="50" height="50" relative="1" as="geometry">
                        <mxPoint x="144.99799999999988" y="-126.62400000000002" as="sourcePoint"/>
                        <mxPoint x="203" y="-178" as="targetPoint"/>
                        <Array as="points">
                            <mxPoint x="135" y="-248"/>
                        </Array>
                        <mxPoint y="-1" as="offset"/>
                    </mxGeometry>
                </mxCell>
                <mxCell id="215" value="&lt;span style=&quot;font-size: 41px&quot;&gt;combl2&lt;/span&gt;" style="ellipse;whiteSpace=wrap;html=1;aspect=fixed;strokeWidth=2;" parent="1" vertex="1">
                    <mxGeometry x="136" y="-187" width="155" height="155" as="geometry"/>
                </mxCell>
                <mxCell id="216" value="&lt;span style=&quot;color: rgb(32 , 33 , 36) ; font-family: &amp;#34;arial&amp;#34; , sans-serif ; font-size: 29px ; text-align: left&quot;&gt;Î£ - *, /&lt;/span&gt;" style="curved=1;endArrow=classic;html=1;strokeWidth=2;exitX=0.018;exitY=0.683;exitDx=0;exitDy=0;exitPerimeter=0;" parent="1" source="215" target="212" edge="1">
                    <mxGeometry width="50" height="50" relative="1" as="geometry">
                        <mxPoint x="54.740775541957134" y="11.19922445804309" as="sourcePoint"/>
                        <mxPoint x="-38.03499999999991" y="-3.2849999999998545" as="targetPoint"/>
                        <Array as="points">
                            <mxPoint x="77.44" y="-60"/>
                            <mxPoint x="-40" y="-87"/>
                        </Array>
                    </mxGeometry>
                </mxCell>
                <mxCell id="217" value="*" style="curved=1;endArrow=classic;html=1;fontSize=41;strokeWidth=2;exitX=0.672;exitY=0.029;exitDx=0;exitDy=0;entryX=1;entryY=0.5;entryDx=0;entryDy=0;exitPerimeter=0;" parent="1" source="215" target="215" edge="1">
                    <mxGeometry x="0.1941" y="-13" width="50" height="50" relative="1" as="geometry">
                        <mxPoint x="245.2" y="-227" as="sourcePoint"/>
                        <mxPoint x="377.0050000000003" y="-176.9000000000001" as="targetPoint"/>
                        <Array as="points">
                            <mxPoint x="291" y="-214"/>
                            <mxPoint x="344" y="-202"/>
                            <mxPoint x="344" y="-139"/>
                        </Array>
                        <mxPoint as="offset"/>
                    </mxGeometry>
                </mxCell>
                <mxCell id="218" value="/" style="curved=1;endArrow=classic;html=1;fontSize=41;strokeWidth=2;exitX=0.5;exitY=1;exitDx=0;exitDy=0;entryX=0.357;entryY=0.027;entryDx=0;entryDy=0;entryPerimeter=0;" parent="1" source="215" target="4" edge="1">
                    <mxGeometry x="-0.3389" y="2" width="50" height="50" relative="1" as="geometry">
                        <mxPoint x="124" y="32" as="sourcePoint"/>
                        <mxPoint x="471.33200000000033" y="410.50400000000013" as="targetPoint"/>
                        <Array as="points">
                            <mxPoint x="168" y="109"/>
                            <mxPoint x="197" y="345"/>
                        </Array>
                        <mxPoint y="1" as="offset"/>
                    </mxGeometry>
                </mxCell>
                <mxCell id="219" value="&lt;span style=&quot;font-size: 41px&quot;&gt;mend&lt;/span&gt;" style="ellipse;whiteSpace=wrap;html=1;aspect=fixed;strokeWidth=2;" parent="1" vertex="1">
                    <mxGeometry x="847" y="-64" width="155" height="155" as="geometry"/>
                </mxCell>
                <mxCell id="220" value="EOF" style="curved=1;endArrow=classic;html=1;fontSize=41;strokeWidth=2;exitX=1;exitY=0;exitDx=0;exitDy=0;entryX=0;entryY=1;entryDx=0;entryDy=0;" parent="1" source="219" target="49" edge="1">
                    <mxGeometry x="-0.0278" y="16" width="50" height="50" relative="1" as="geometry">
                        <mxPoint x="1198.9992244580724" y="85.39922445807241" as="sourcePoint"/>
                        <mxPoint x="1154.9992244580424" y="-179.99922445804287" as="targetPoint"/>
                        <Array as="points">
                            <mxPoint x="1031" y="-130"/>
                        </Array>
                        <mxPoint x="-1" y="1" as="offset"/>
                    </mxGeometry>
                </mxCell>
                <mxCell id="221" value="&lt;span style=&quot;font-size: 41px&quot;&gt;beg4&lt;/span&gt;" style="ellipse;whiteSpace=wrap;html=1;aspect=fixed;strokeWidth=2;" parent="1" vertex="1">
                    <mxGeometry x="-1534" y="453" width="155" height="155" as="geometry"/>
                </mxCell>
                <mxCell id="224" value="" style="group" parent="1" vertex="1" connectable="0">
                    <mxGeometry x="-455" y="736" width="152" height="145.5" as="geometry"/>
                </mxCell>
                <mxCell id="225" value="" style="ellipse;whiteSpace=wrap;html=1;aspect=fixed;strokeWidth=2;" parent="224" vertex="1">
                    <mxGeometry width="145.5" height="145.5" as="geometry"/>
                </mxCell>
                <mxCell id="226" value="&lt;span style=&quot;font-size: 41px&quot;&gt;eq1&lt;/span&gt;" style="ellipse;whiteSpace=wrap;html=1;aspect=fixed;strokeWidth=2;" parent="224" vertex="1">
                    <mxGeometry x="6.909090909090909" y="6.613636363636364" width="132.27272727272728" height="132.27272727272728" as="geometry"/>
                </mxCell>
                <mxCell id="227" value="a...z,&lt;br&gt;A...Z,&lt;br&gt;_" style="curved=1;endArrow=classic;html=1;fontSize=41;strokeWidth=2;exitX=0.957;exitY=0.262;exitDx=0;exitDy=0;exitPerimeter=0;" edge="1" parent="1" source="4" target="229">
                    <mxGeometry x="0.3526" y="47" width="50" height="50" relative="1" as="geometry">
                        <mxPoint x="476.7757669400877" y="354.456813124239" as="sourcePoint"/>
                        <mxPoint x="498" y="97" as="targetPoint"/>
                        <Array as="points">
                            <mxPoint x="678" y="464"/>
                        </Array>
                        <mxPoint as="offset"/>
                    </mxGeometry>
                </mxCell>
                <mxCell id="228" value="" style="group" vertex="1" connectable="0" parent="1">
                    <mxGeometry x="288" y="-32" width="186.5" height="186.5" as="geometry"/>
                </mxCell>
                <mxCell id="229" value="" style="ellipse;whiteSpace=wrap;html=1;aspect=fixed;strokeWidth=2;" vertex="1" parent="228">
                    <mxGeometry width="186.5" height="186.5" as="geometry"/>
                </mxCell>
                <mxCell id="230" value="&lt;span style=&quot;font-size: 41px&quot;&gt;id&lt;/span&gt;" style="ellipse;whiteSpace=wrap;html=1;aspect=fixed;strokeWidth=2;" vertex="1" parent="228">
                    <mxGeometry x="15.75" y="15.75" width="155" height="155" as="geometry"/>
                </mxCell>
                <mxCell id="231" value="a...z,&lt;br&gt;A...Z,&lt;br&gt;_,&lt;br&gt;0...9" style="curved=1;endArrow=classic;html=1;fontSize=41;strokeWidth=2;exitX=0.973;exitY=0.669;exitDx=0;exitDy=0;exitPerimeter=0;entryX=0.669;entryY=-0.001;entryDx=0;entryDy=0;entryPerimeter=0;" edge="1" parent="228" source="229" target="229">
                    <mxGeometry x="-0.0168" y="12" width="50" height="50" relative="1" as="geometry">
                        <mxPoint x="279.97371491446324" y="87.0974738413484" as="sourcePoint"/>
                        <mxPoint x="337.9433719482315" y="-122.25059480552972" as="targetPoint"/>
                        <Array as="points">
                            <mxPoint x="278.54999999999995" y="44.089999999999975"/>
                            <mxPoint x="254.75" y="-45.25"/>
                        </Array>
                        <mxPoint as="offset"/>
                    </mxGeometry>
                </mxCell>
            </root>
        </mxGraphModel>
    </diagram>
</mxfile>